<svg xmlns="http://www.w3.org/2000/svg" xmlns:xlink="http://www.w3.org/1999/xlink" viewBox="0 0 114 115.09"><defs><style>.cls-1{fill:url(#Degradado_sin_nombre_5);}.cls-2{fill:url(#Degradado_sin_nombre_7);}.cls-3{fill:url(#Degradado_sin_nombre_6);}.cls-4{fill:url(#Degradado_sin_nombre_6-2);}.cls-5{fill:url(#Degradado_sin_nombre_2);}.cls-6{fill:url(#Degradado_sin_nombre_4);}.cls-7{fill:url(#Degradado_sin_nombre_2-2);}.cls-8{fill:url(#Degradado_sin_nombre_3);}.cls-9{fill:url(#Degradado_sin_nombre_4-2);}.cls-10{fill:url(#Degradado_sin_nombre_3-2);}.cls-11{fill:url(#Degradado_sin_nombre_3-3);}.cls-12{fill:url(#Degradado_sin_nombre_3-4);}.cls-13{fill:url(#Degradado_sin_nombre_2-3);}.cls-14{fill:url(#Degradado_sin_nombre_2-4);}.cls-15{fill:url(#Degradado_sin_nombre_2-5);}.cls-16{fill:url(#Degradado_sin_nombre_3-5);}.cls-17{fill:url(#Degradado_sin_nombre_5-2);}.cls-18{fill:url(#Degradado_sin_nombre_6-3);}.cls-19{fill:url(#Degradado_sin_nombre_5-3);}.cls-20{fill:url(#Degradado_sin_nombre_5-4);}.cls-21{fill:url(#Degradado_sin_nombre_6-4);}.cls-22{fill:url(#Degradado_sin_nombre_2-6);}.cls-23{fill:url(#Degradado_sin_nombre_7-2);}.cls-24{fill:url(#Degradado_sin_nombre_2-7);}.cls-25{fill:url(#Degradado_sin_nombre_5-5);}.cls-26{fill:url(#Degradado_sin_nombre_2-8);}.cls-27{fill:url(#Degradado_sin_nombre_3-6);}.cls-28{fill:url(#Degradado_sin_nombre_6-5);}</style><linearGradient id="Degradado_sin_nombre_5" x1="130.18" y1="-48.69" x2="168.86" y2="-48.69" gradientTransform="matrix(0.64, -0.77, -0.77, -0.64, -49.54, 145.43)" gradientUnits="userSpaceOnUse"><stop offset="0" stop-color="#f20505"/><stop offset="0.15" stop-color="#f65a5a"/><stop offset="0.41" stop-color="#f65a5a"/><stop offset="0.6" stop-color="#f21605"/><stop offset="0.76" stop-color="#f55346"/><stop offset="1" stop-color="#f22005"/></linearGradient><linearGradient id="Degradado_sin_nombre_7" x1="136.5" y1="-75.61" x2="139.13" y2="-70.43" gradientTransform="matrix(0.64, -0.77, -0.77, -0.64, -49.54, 145.43)" gradientUnits="userSpaceOnUse"><stop offset="0" stop-color="#cb07f2"/><stop offset="0.34" stop-color="#be23f4"/><stop offset="1" stop-color="#b505f2"/></linearGradient><linearGradient id="Degradado_sin_nombre_6" x1="130.54" y1="-66.24" x2="138.55" y2="-66.24" gradientTransform="matrix(0.64, -0.77, -0.77, -0.64, -49.54, 145.43)" gradientUnits="userSpaceOnUse"><stop offset="0" stop-color="#6805f2"/><stop offset="0.15" stop-color="#9b5af6"/><stop offset="0.41" stop-color="#9b5af6"/><stop offset="0.6" stop-color="#8005f2"/><stop offset="0.76" stop-color="#a146f5"/><stop offset="1" stop-color="#8e05f2"/></linearGradient><linearGradient id="Degradado_sin_nombre_6-2" x1="136.7" y1="-79.83" x2="149.3" y2="-79.83" xlink:href="#Degradado_sin_nombre_6"/><linearGradient id="Degradado_sin_nombre_2" x1="93.7" y1="-47.43" x2="103.47" y2="-47.43" gradientTransform="matrix(0.64, -0.77, -0.77, -0.64, -49.54, 145.43)" gradientUnits="userSpaceOnUse"><stop offset="0" stop-color="#0756f2"/><stop offset="0.34" stop-color="#237ef4"/><stop offset="1" stop-color="#056cf2"/></linearGradient><linearGradient id="Degradado_sin_nombre_4" x1="102.7" y1="-64.98" x2="91.3" y2="-58.33" gradientTransform="matrix(0.64, -0.77, -0.77, -0.64, -49.54, 145.43)" gradientUnits="userSpaceOnUse"><stop offset="0" stop-color="#0597f2"/><stop offset="0.24" stop-color="#46c4f5"/><stop offset="0.4" stop-color="#05aff2"/><stop offset="0.59" stop-color="#5ae7f6"/><stop offset="0.85" stop-color="#5ae7f6"/><stop offset="1" stop-color="#05dbf2"/></linearGradient><linearGradient id="Degradado_sin_nombre_2-2" x1="79.06" y1="-15.37" x2="82.5" y2="-15.37" xlink:href="#Degradado_sin_nombre_2"/><linearGradient id="Degradado_sin_nombre_3" x1="76.34" y1="-2.88" x2="84.46" y2="-10.33" gradientTransform="matrix(0.64, -0.77, -0.77, -0.64, -49.54, 145.43)" gradientUnits="userSpaceOnUse"><stop offset="0" stop-color="#05dbf2"/><stop offset="0.15" stop-color="#5ae7f6"/><stop offset="0.41" stop-color="#5ae7f6"/><stop offset="0.6" stop-color="#05aff2"/><stop offset="0.76" stop-color="#46c4f5"/><stop offset="1" stop-color="#0597f2"/></linearGradient><linearGradient id="Degradado_sin_nombre_4-2" x1="104.72" y1="-37.19" x2="78.02" y2="-25.19" xlink:href="#Degradado_sin_nombre_4"/><linearGradient id="Degradado_sin_nombre_3-2" x1="176.31" y1="-76.57" x2="170.65" y2="-58" gradientTransform="matrix(0.46, -0.89, -0.89, -0.46, -64.07, 129.91)" xlink:href="#Degradado_sin_nombre_3"/><linearGradient id="Degradado_sin_nombre_3-3" x1="147.84" y1="-73.34" x2="139.41" y2="-39.63" gradientTransform="matrix(0.46, -0.89, -0.89, -0.46, -64.07, 129.91)" xlink:href="#Degradado_sin_nombre_3"/><linearGradient id="Degradado_sin_nombre_3-4" x1="114.18" y1="-61.13" x2="105.75" y2="-29.92" gradientTransform="matrix(0.46, -0.89, -0.89, -0.46, -64.07, 129.91)" xlink:href="#Degradado_sin_nombre_3"/><linearGradient id="Degradado_sin_nombre_2-3" x1="160.71" y1="-58.63" x2="160.71" y2="-71.21" gradientTransform="matrix(0.46, -0.89, -0.89, -0.46, -64.07, 129.91)" xlink:href="#Degradado_sin_nombre_2"/><linearGradient id="Degradado_sin_nombre_2-4" x1="127.25" y1="-42.45" x2="127.25" y2="-57.97" gradientTransform="matrix(0.46, -0.89, -0.89, -0.46, -64.07, 129.91)" xlink:href="#Degradado_sin_nombre_2"/><linearGradient id="Degradado_sin_nombre_2-5" x1="95.95" y1="-38.64" x2="96.09" y2="-31.4" gradientTransform="matrix(0.46, -0.89, -0.89, -0.46, -64.07, 129.91)" xlink:href="#Degradado_sin_nombre_2"/><linearGradient id="Degradado_sin_nombre_3-5" x1="44.68" y1="74.94" x2="50.13" y2="74.94" gradientTransform="matrix(1, 0, 0, 1, 0, 0)" xlink:href="#Degradado_sin_nombre_3"/><linearGradient id="Degradado_sin_nombre_5-2" x1="24.14" y1="39.37" x2="28.47" y2="39.37" gradientTransform="matrix(1, 0, 0, 1, 0, 0)" xlink:href="#Degradado_sin_nombre_5"/><linearGradient id="Degradado_sin_nombre_6-3" x1="70.41" y1="97.96" x2="76.6" y2="97.96" gradientTransform="matrix(1, 0, 0, 1, 0, 0)" xlink:href="#Degradado_sin_nombre_6"/><linearGradient id="Degradado_sin_nombre_5-3" x1="17.49" y1="88.08" x2="22.76" y2="88.08" gradientTransform="matrix(1, 0, 0, 1, 0, 0)" xlink:href="#Degradado_sin_nombre_5"/><linearGradient id="Degradado_sin_nombre_5-4" x1="83.45" y1="39.14" x2="92.56" y2="39.14" gradientTransform="matrix(1, 0, 0, 1, 0, 0)" xlink:href="#Degradado_sin_nombre_5"/><linearGradient id="Degradado_sin_nombre_6-4" x1="4.62" y1="75.12" x2="9.33" y2="75.12" gradientTransform="matrix(1, 0, 0, 1, 0, 0)" xlink:href="#Degradado_sin_nombre_6"/><linearGradient id="Degradado_sin_nombre_2-6" x1="54.07" y1="54.75" x2="59.48" y2="54.75" gradientTransform="matrix(1, 0, 0, 1, 0, 0)" xlink:href="#Degradado_sin_nombre_2"/><linearGradient id="Degradado_sin_nombre_7-2" x1="60.37" y1="79.81" x2="62.67" y2="79.81" gradientTransform="matrix(1, 0, 0, 1, 0, 0)" xlink:href="#Degradado_sin_nombre_7"/><linearGradient id="Degradado_sin_nombre_2-7" x1="40.02" y1="106.33" x2="44.9" y2="106.33" gradientTransform="matrix(1, 0, 0, 1, 0, 0)" xlink:href="#Degradado_sin_nombre_2"/><linearGradient id="Degradado_sin_nombre_5-5" x1="27.71" y1="109.41" x2="32.48" y2="109.41" gradientTransform="matrix(1, 0, 0, 1, 0, 0)" xlink:href="#Degradado_sin_nombre_5"/><linearGradient id="Degradado_sin_nombre_2-8" x1="27.85" y1="68.92" x2="33.94" y2="68.92" gradientTransform="matrix(1, 0, 0, 1, 0, 0)" xlink:href="#Degradado_sin_nombre_2"/><linearGradient id="Degradado_sin_nombre_3-6" x1="78.76" y1="24.69" x2="84.16" y2="24.69" gradientTransform="matrix(1, 0, 0, 1, 0, 0)" xlink:href="#Degradado_sin_nombre_3"/><linearGradient id="Degradado_sin_nombre_6-5" x1="105.62" y1="35.15" x2="114" y2="35.15" gradientTransform="matrix(1, 0, 0, 1, 0, 0)" xlink:href="#Degradado_sin_nombre_6"/></defs><title>Asset 2</title><g id="Layer_2" data-name="Layer 2"><g id="Capa_1" data-name="Capa 1"><path class="cls-1" d="M103.68,52.91a3.23,3.23,0,0,1-1.93.37c.78,1.25,2.39,2.13,2.66,3.6a12.58,12.58,0,0,0-3.79-2.43,5.09,5.09,0,0,0-5.2.79C93.6,57,93.91,60.27,92,62c-1.45,1.27-3.68,1.16-5.49.51s-3.46-1.76-5.31-2.31-4.13-.36-5.32,1.16c-1.08,1.37-.91,3.32-1.34,5a6.84,6.84,0,0,1-11.69,3,12,12,0,0,1,2,.08,27.79,27.79,0,0,1-3.07-4.28,7,7,0,0,0,4.72,2,7.1,7.1,0,0,0,6.7-5.19c.44-1.7.26-3.64,1.34-5s3.47-1.7,5.33-1.16,3.49,1.65,5.3,2.31,4,.77,5.49-.51c1.9-1.69,1.6-4.94,3.41-6.71a5,5,0,0,1,5.2-.79A14.06,14.06,0,0,1,103.68,52.91Z"/><path class="cls-2" d="M96.9,87.51c.17.33.35.67.55,1a2.05,2.05,0,0,1-.49,0A3.13,3.13,0,0,1,95.74,88l0,0a7.81,7.81,0,0,1-2.34-3c-.22-.44-.46-.9-.73-1.34a6.62,6.62,0,0,0-1.46-1.79l3.1,2.24A8.09,8.09,0,0,1,96.9,87.51Z"/><path class="cls-3" d="M92.63,83.63a6.77,6.77,0,0,0-3.28,1.09,9.67,9.67,0,0,1-4,1.71,3.12,3.12,0,0,1-1.64-.35c.31-.39.77-.93,1-1.23a6.61,6.61,0,0,1-3.16-1,2.08,2.08,0,0,0,.25,0,9.65,9.65,0,0,0,4-1.7,5.57,5.57,0,0,1,4.15-1,3.26,3.26,0,0,1,.91.41l.3.22A6.62,6.62,0,0,1,92.63,83.63Z"/><path class="cls-4" d="M110.26,83.64a4,4,0,0,0-1.86.5c-1.59.89-2.45,2.66-3.47,4.17s-2.62,3-4.43,2.71a2.92,2.92,0,0,1-1-.32h0l-.79-.56h0l-3-2.12a3.13,3.13,0,0,0,1.22.47,2.05,2.05,0,0,0,.49,0c1.61,0,3-1.37,3.94-2.74s1.88-3.28,3.48-4.18a4.17,4.17,0,0,1,2.3-.49l.29,1.81Z"/><path class="cls-5" d="M51.76,98.14a5.48,5.48,0,0,1,.53,1c1,2.55,0,5.42-.18,8.16a7.57,7.57,0,0,1-2.81-2l0,0a5.37,5.37,0,0,1-1-1.58c-1-2.51,0-5.34.15-8a7.68,7.68,0,0,0-.4-3.34,6.58,6.58,0,0,0-.46-.92Z"/><path class="cls-6" d="M64.46,111.52l4,3.3c-2.94-.09-5.9.47-8.83.19a9.44,9.44,0,0,1-6.07-2.77h0l-1-1.69h0l-3.23-5.22a7.57,7.57,0,0,0,2.81,2,11,11,0,0,0,3.32.84c2.94.29,5.89-.28,8.83-.18a12.79,12.79,0,0,1,4.41.89Z"/><path class="cls-7" d="M14.29,93.53h0a8.84,8.84,0,0,1,.95,1.4,14.39,14.39,0,0,1,.88,2,5.61,5.61,0,0,1-1.54-1.2,5.17,5.17,0,0,1-.48-.59l0,0a12.4,12.4,0,0,1-1.55-3.26,29.5,29.5,0,0,0-1.2-3.17Z"/><path class="cls-8" d="M10.21,86.85A9.8,9.8,0,0,0,3.9,83.21a9.54,9.54,0,0,0-3.9.31H0l5.25,3L4.13,90.39a9.46,9.46,0,0,1,4-.33,9.68,9.68,0,0,1,4.4,1.79,29.5,29.5,0,0,0-1.2-3.17l-1.1-1.81Z"/><path class="cls-9" d="M47.56,91.32l0,.08a6.58,6.58,0,0,1,.46.92,7.68,7.68,0,0,1,.4,3.34,8.61,8.61,0,0,0-4.11-.47c-3.17.4-6,2.22-8.52,4.12s-5.11,3.94-8.14,4.93-6.73.69-8.9-1.65l-.32-.37h0l-.93-1.49-3.44-5.56a5.17,5.17,0,0,0,.48.59A5.61,5.61,0,0,0,16.13,97a9.38,9.38,0,0,0,7.36.45c3-1,5.57-3,8.14-4.94s5.35-3.71,8.51-4.12C42.93,88,46.06,89,47.56,91.32Z"/><path class="cls-10" d="M79.85,7.33l2,5.44-7.29-2.18c-2.49-.74-5.24-1.48-7.65-.49a4.52,4.52,0,0,0-.82.42,9.67,9.67,0,0,1-.33-5.3A6.83,6.83,0,0,1,69.59.48C72-.51,74.75.23,77.25,1l8.1,2.43Z"/><path class="cls-11" d="M60.22,37.66c-3.2-.08-6.18-1.56-9-3.06s-5.71-3.11-8.9-3.47A9.64,9.64,0,0,0,37,32a9.58,9.58,0,0,1-.81-4.59l.62-2.2c1.42-2.87,5-4.09,8.22-3.73s6.07,2,8.9,3.47,5.81,3,9,3.06A9,9,0,0,0,67,27.15a6.55,6.55,0,0,0,3.18-3l-2.39,8.81C66.9,36,63.43,37.73,60.22,37.66Z"/><path class="cls-12" d="M40.25,57.8v0a3.29,3.29,0,0,1-.26.49c-1.79,3.07-6,3.77-9.48,2.9S24,58.29,20.73,57c-2.94-1.14-6.49-1.55-9.16-.05a9.17,9.17,0,0,1-.71-5.39A6.59,6.59,0,0,1,13.29,48c2.75-2.25,6.83-1.88,10.14-.61s6.33,3.32,9.78,4.19A10.39,10.39,0,0,0,40,51.12a6,6,0,0,0,2.74-2.43l-1.92,7.14Z"/><path class="cls-13" d="M65.74,5.22a9.67,9.67,0,0,0,.33,5.3,8.74,8.74,0,0,0,.33.9c.82,2,2.12,3.74,3.09,5.66a8.74,8.74,0,0,1,1,6.21,4.14,4.14,0,0,1-.32.81,6.55,6.55,0,0,1-3.18,3c-.06-.15-.14-.31-.21-.45-1-1.93-2.26-3.68-3.09-5.66a10.11,10.11,0,0,1-.67-6.2,7.2,7.2,0,0,1,.45-1.28h0Z"/><path class="cls-14" d="M37,32a12,12,0,0,0,.65,1.35C39,35.87,40.92,38,42.22,40.55s1.91,5.69.48,8.14A6,6,0,0,1,40,51.12c-.13-.32-.28-.64-.44-1-1.31-2.51-3.24-4.67-4.6-7.16s-2.1-5.61-.83-8.15l2.08-7.41A9.58,9.58,0,0,0,37,32Z"/><path class="cls-15" d="M11.57,57c.68,1.83,1.62,3.69,2.19,5.53l-3.07.83-1,5.3h0C8.48,65.79,7.32,63,8.44,60.35h0l2.28-8.8.16,0A9.17,9.17,0,0,0,11.57,57Z"/><path class="cls-16" d="M49.47,77.89a5.73,5.73,0,0,1,.66-5.9,6.11,6.11,0,0,1-4.41.61,7.27,7.27,0,0,1-1,4.9C46.46,77.1,48.21,76.57,49.47,77.89Z"/><path class="cls-17" d="M28.47,42.31a5,5,0,0,1-.82-6,3.59,3.59,0,0,1-3.51.83,7,7,0,0,1,0,5.15C25.65,42.46,27,42.19,28.47,42.31Z"/><path class="cls-18" d="M75.59,100.05a3.1,3.1,0,0,1,1-4,6.06,6.06,0,0,1-5.38-.15,2.8,2.8,0,0,1-.81,2.36A12,12,0,0,1,75.59,100.05Z"/><path class="cls-19" d="M22.76,89.23a2.44,2.44,0,0,1-1.43-1.56,2.31,2.31,0,0,1,.22-2,9,9,0,0,1-4.06,2.07,2.65,2.65,0,0,1,.93,2.84A12.56,12.56,0,0,1,22.76,89.23Z"/><path class="cls-20" d="M85.32,42.87a10.92,10.92,0,0,0,7.24-4.77A4.18,4.18,0,0,1,90,35.41a19.64,19.64,0,0,1-6.5,6C84.15,41.67,84.62,42.64,85.32,42.87Z"/><path class="cls-21" d="M5.67,77.26a6,6,0,0,0,3.66-2.82c-.54-.42-1.19-1-1.74-1.46a8.26,8.26,0,0,1-3,2.81C5.28,76.05,5.48,76.57,5.67,77.26Z"/><path class="cls-22" d="M56.15,57.24a12.67,12.67,0,0,1,3.33-4.48,4.9,4.9,0,0,1-4-.49,3.57,3.57,0,0,1-1.42,3.14C54.64,56.06,55.58,56.59,56.15,57.24Z"/><path class="cls-23" d="M61.09,81.16c.49-.46,1.09-1,1.58-1.42a1.68,1.68,0,0,1-1.4-1.29l-.9,1.86C60.91,80.51,60.86,80.63,61.09,81.16Z"/><path class="cls-24" d="M40,108a4,4,0,0,0,2.17-3.28,4.21,4.21,0,0,0,2.71,2.13C43.57,108.2,42,108,40,108Z"/><path class="cls-25" d="M32.48,110.35a2,2,0,0,1-1.86-.49c-.47-.47-.3-1.21-.13-1.86a3.91,3.91,0,0,1-2.75.64,1.88,1.88,0,0,0,.5,1.63,1.9,1.9,0,0,0,1.62.53C30.94,110.62,31.52,110.86,32.48,110.35Z"/><path class="cls-26" d="M33.94,68.89a2.21,2.21,0,0,1-2.1-.1c-.62-.39-.67-1.12-.67-1.85a4.86,4.86,0,0,1-3.3,2,1.7,1.7,0,0,0,1.47,1.94C30.92,71,32.64,69.8,33.94,68.89Z"/><path class="cls-27" d="M84.16,25.44c-1.31-.52-2.3-1.92-1.72-3.2A4.46,4.46,0,0,1,79,24.41a2,2,0,0,0,.09,1.9,1.75,1.75,0,0,0,1.58.84C82.34,27,82.63,26.2,84.16,25.44Z"/><path class="cls-28" d="M114,36.79c-1.74-.66-2.86-3.19-1.79-4.71a26.36,26.36,0,0,0-3.15,2c-1.1.62-2.68.77-3.44-.23,0,1.4,1,2.95,1,4.35C108.68,37.69,112,37.33,114,36.79Z"/></g></g></svg>