<svg xmlns="http://www.w3.org/2000/svg" width="25" height="18.758" viewBox="0 0 25 18.758">
  <path id="iconfinder_code_1608639" d="M-11.186,288.852l-.683.683a.432.432,0,0,1-.314.137.432.432,0,0,1-.314-.137l-6.366-6.366a.432.432,0,0,1-.137-.314.432.432,0,0,1,.137-.314l6.366-6.366a.432.432,0,0,1,.314-.137.432.432,0,0,1,.314.137l.683.683a.432.432,0,0,1,.137.314.432.432,0,0,1-.137.314l-5.369,5.369,5.369,5.369a.432.432,0,0,1,.137.314A.432.432,0,0,1-11.186,288.852Zm8.074-14.577-5.1,17.637a.444.444,0,0,1-.212.266.381.381,0,0,1-.321.034l-.847-.232a.444.444,0,0,1-.266-.212.409.409,0,0,1-.034-.335l5.1-17.637a.444.444,0,0,1,.212-.266.381.381,0,0,1,.321-.034l.847.232a.444.444,0,0,1,.266.212A.409.409,0,0,1-3.112,274.276Zm8.975,8.893L-.5,289.535a.432.432,0,0,1-.314.137.432.432,0,0,1-.314-.137l-.683-.683a.432.432,0,0,1-.137-.314.432.432,0,0,1,.137-.314l5.369-5.369-5.369-5.369a.432.432,0,0,1-.137-.314.432.432,0,0,1,.137-.314l.683-.683a.432.432,0,0,1,.314-.137.432.432,0,0,1,.314.137l6.366,6.366a.43.43,0,0,1,0,.628Z" transform="translate(19 -273.476)" fill="#ffa200"/>
</svg>
